<?xml version="1.0" ?><svg height="22px" version="1.1" viewBox="0 0 22 22" width="22px" xmlns="http://www.w3.org/2000/svg" xmlns:sketch="http://www.bohemiancoding.com/sketch/ns" xmlns:xlink="http://www.w3.org/1999/xlink"><title/><desc/><defs/><g fill="none" fill-rule="evenodd" id="miu" stroke="none" stroke-width="1"><path d="M11,22 C17.0751325,22 22,17.0751325 22,11 C22,4.92486745 17.0751325,0 11,0 C4.92486745,0 0,4.92486745 0,11 C0,17.0751325 4.92486745,22 11,22 Z M11,11.8509529 L16.625,7 L5.375,7 L11,11.8509529 Z M9.48068237,11.3139573 L11,12.5548913 L12.4955139,11.3139573 L16.625,14.8361546 L5.375,14.8361546 L9.48068237,11.3139573 Z M5,14.4630044 L5,7.37315022 L9.125,10.9180773 L5,14.4630044 Z M17,14.4630044 L17,7.37315022 L12.875,10.9180773 L17,14.4630044 Z" fill="#000000" id="circle-social_email_glyph"/></g></svg>